<?xml version="1.0" encoding="iso-8859-1"?>
<!-- Generator: Adobe Illustrator 16.0.0, SVG Export Plug-In . SVG Version: 6.00 Build 0)  -->
<!DOCTYPE svg PUBLIC "-//W3C//DTD SVG 1.1//EN" "http://www.w3.org/Graphics/SVG/1.1/DTD/svg11.dtd">
<svg xmlns="http://www.w3.org/2000/svg" xmlns:xlink="http://www.w3.org/1999/xlink" version="1.1" id="Capa_1" x="0px" y="0px" width="512px" height="512px" viewBox="0 0 437.954 437.953" style="enable-background:new 0 0 437.954 437.953;" xml:space="preserve">
<g>
	<g>
		<g>
			<path d="M158.453,140.277c25.881,2.483,51.73,17.071,70.936,40.041l0.12,0.143c1.854,2.176,14.148,15.06,19.12,19.637     l0.562,0.497c11.562,9.828,24.365,16.979,39.146,21.861l6.567,2.169l-0.005-88.814c-0.062-22.089-13.672-37.238-25.681-50.604     c-9.736-10.837-18.15-20.202-18.207-31.158c2.407-1.581,4.003-4.308,4.003-7.399c0-3.158-1.669-5.928-4.167-7.492V10.642     C250.848,4.775,246.075,0,240.205,0h-42.451c-5.867,0-10.642,4.774-10.642,10.642v28.514c-2.498,1.563-4.167,4.334-4.167,7.492     c0,3.092,1.595,5.818,4.003,7.399c-0.057,10.956-8.469,20.321-18.203,31.159c-11.816,13.154-25.208,28.063-25.665,49.623     l-0.111,5.229l5.229-0.123C151.698,139.853,155.195,139.964,158.453,140.277z" fill="#D80027"/>
			<path d="M291.501,359.32c-1.485-3.599-3.172-7.677-4.896-12.299c-12.924-34.649-5.34-56.392,1.35-75.569     c3.271-9.375,6.357-18.229,6.869-27.718l0.285-5.275l-5.442,0.008c-3.522,0-7.019-0.164-10.383-0.485     c-23.978-2.302-47.13-12.599-63.52-28.25c-3.762-3.593-7.358-7.669-11.167-11.983c-5.535-6.271-11.259-12.755-18.353-18.824     c-10.887-9.309-22.831-16.199-36.515-21.066l-6.675-2.375v85.553c0,10.512,3.373,20.182,6.944,30.418     c6.691,19.18,14.275,40.92,1.352,75.568c-1.725,4.625-3.409,8.702-4.895,12.302c-4.516,10.935-7.778,18.835-7.457,29.761h0.012     c0.159,2.602,1.98,24.531,15.314,38.15c6.961,7.11,15.736,10.717,26.081,10.717c6.025,0,13.595-2.021,18.873-10.479     c4.512,4.777,10.588,8.457,19.698,8.457c9.109,0,15.187-3.68,19.697-8.457c5.277,8.457,12.849,10.479,18.873,10.479     c10.346,0,19.119-3.604,26.082-10.717c13.334-13.619,15.154-35.552,15.312-38.15h0.012     C299.281,378.158,296.017,370.256,291.501,359.32z" fill="#D80027"/>
		</g>
	</g>
</g>
<g>
</g>
<g>
</g>
<g>
</g>
<g>
</g>
<g>
</g>
<g>
</g>
<g>
</g>
<g>
</g>
<g>
</g>
<g>
</g>
<g>
</g>
<g>
</g>
<g>
</g>
<g>
</g>
<g>
</g>
</svg>
